<?xml version="1.0" encoding="UTF-8"?>
<svg width="294px" height="42px" viewBox="0 0 294 42" version="1.1" xmlns="http://www.w3.org/2000/svg" xmlns:xlink="http://www.w3.org/1999/xlink">
    <!-- Generator: Sketch 50.2 (55047) - http://www.bohemiancoding.com/sketch -->
    <title>Group 2</title>
    <desc>Created with Sketch.</desc>
    <defs></defs>
    <g id="Page-1" stroke="none" stroke-width="1" fill="none" fill-rule="evenodd">
        <g id="imandra.ai-desktop" transform="translate(-297.000000, -1692.000000)">
            <g id="Group-2" transform="translate(297.500000, 1692.000000)">
                <path d="M275.960734,32.6232818 L275.960734,36.4254857 L281.691997,36.4254857 L281.691997,37.1244202 L275.960734,37.1244202 L275.960734,40.9685601 L282.139665,40.9685601 L282.139665,41.695452 L275.219864,41.695452 L275.219864,31.9103686 L281.971571,31.9103686 L281.971571,32.6093031 L275.960734,32.6232818 Z M268.461167,39.8642435 L268.9644,40.339519 C268.017343,41.2862258 266.732352,41.8170666 265.392844,41.8142709 C262.093873,41.8142709 260.374494,39.5077869 260.360516,36.8658144 C260.346537,34.2238419 262.037958,31.8055284 265.392844,31.8055284 C266.728508,31.8027327 268.010703,32.3307777 268.95741,33.2732909 L268.440199,33.720609 C267.631881,32.9136891 266.534903,32.4632258 265.392844,32.4695162 C262.541541,32.4695162 261.073429,34.4824477 261.087407,36.8308677 C261.11187,39.1233729 262.565654,41.1153363 265.392844,41.1153363 C266.536301,41.1139385 267.634327,40.664873 268.450683,39.8642435 L268.461167,39.8642435 Z M253.042671,41.695452 L253.783542,41.695452 L253.783542,31.9103686 L253.042671,31.9103686 L253.042671,41.695452 Z M245.979938,31.9103686 L246.790702,31.9103686 L242.764839,41.7234094 L241.954075,41.7234094 L237.928212,31.9103686 L238.738976,31.9103686 L242.359806,40.8567306 L245.979938,31.9103686 Z M225.427768,32.6093031 L225.427768,37.2711964 L228.894483,37.2711964 C230.599883,37.2711964 231.340754,36.3066668 231.368711,34.9367551 C231.41554,33.6930011 230.445069,32.6463467 229.200966,32.5998675 C229.126529,32.5970718 229.052442,32.5977707 228.978705,32.6023138 L225.427768,32.6093031 Z M229.002818,37.9421736 L232.455555,41.6884626 L231.49452,41.6884626 L228.111677,37.9841097 L225.441747,37.9841097 L225.441747,41.6884626 L224.686897,41.6884626 L224.686897,31.9033793 L228.978705,31.9033793 C231.103466,31.9033793 232.179475,33.4270565 232.193454,34.9507338 C232.193454,36.5512939 231.145052,37.9491629 229.020641,37.9491629 L229.002818,37.9421736 Z M211.878922,32.6162925 L211.878922,36.4184963 L217.610185,36.4184963 L217.610185,37.1174308 L211.878922,37.1174308 L211.878922,40.9615707 L218.057853,40.9615707 L218.057853,41.6884626 L211.138052,41.6884626 L211.138052,31.9033793 L217.889759,31.9033793 L217.889759,32.6023138 L211.878922,32.6162925 Z M204.312956,33.4270565 L203.697894,33.7765238 C202.998959,32.6302712 201.838728,32.4625269 200.734411,32.4485482 C199.630095,32.4345695 197.770929,32.8679089 197.770929,34.4335223 C197.770929,35.6776257 199.113233,35.9711782 200.762369,36.2787094 C202.649841,36.6281767 204.606508,36.9776439 204.606508,39.0744475 C204.606508,41.2830806 202.369918,41.8142709 200.734411,41.8142709 C199.210734,41.8142709 197.477376,41.1852298 196.722527,39.6895099 L197.393854,39.3400426 C197.994588,40.5282313 199.532244,41.1153363 200.734411,41.1153363 C201.936928,41.1153363 203.851659,40.7658691 203.851659,39.0464901 C203.851659,37.5787276 202.244459,37.2572177 200.63656,36.9496866 C198.847288,36.6002193 197.016429,36.250752 197.016429,34.4335223 C196.974143,32.3646761 199.113233,31.7216563 200.734411,31.7216563 C202.13927,31.7705817 203.348776,31.9942408 204.312956,33.4270565 Z M175.090503,38.5851933 L180.332512,38.5851933 L177.704519,32.6442499 L175.090503,38.5851933 Z M182.527516,41.6884626 L181.716403,41.6884626 L180.640044,39.2841279 L174.7973,39.2841279 L173.748899,41.6884626 L172.923806,41.6884626 L177.313465,31.9033793 L178.137858,31.9033793 L182.527516,41.6884626 Z M158.323064,33.4270565 L157.708002,33.7765238 C157.009067,32.6302712 155.848836,32.4625269 154.744869,32.4485482 C153.640203,32.4345695 151.781037,32.8679089 151.781037,34.4335223 C151.781037,35.6776257 153.122991,35.9711782 154.772477,36.2787094 C156.6596,36.6281767 158.616617,36.9776439 158.616617,39.0744475 C158.616617,41.2830806 156.380026,41.8142709 154.744869,41.8142709 C153.220842,41.8142709 151.487484,41.1852298 150.732635,39.6895099 L151.403612,39.3400426 C152.004696,40.5282313 153.542352,41.1153363 154.744869,41.1153363 C155.946687,41.1153363 157.862117,40.7658691 157.862117,39.0464901 C157.862117,37.5787276 156.254218,37.2572177 154.646669,36.9496866 C152.857396,36.6002193 151.026188,36.250752 151.026188,34.4335223 C150.984252,32.3646761 153.122991,31.7216563 154.744869,31.7216563 C156.142738,31.7705817 157.358534,31.9942408 158.323064,33.4270565 Z M137.875735,38.5851933 L143.117744,38.5851933 L140.490099,32.6442499 L137.875735,38.5851933 Z M145.312398,41.6884626 L144.501634,41.6884626 L143.428769,39.2911172 L137.589171,39.2911172 L136.54077,41.695452 L135.730006,41.695452 L140.119314,31.9103686 L140.944057,31.9103686 L145.312398,41.6884626 Z M120.84969,33.2313549 L120.41635,33.7066304 C119.569241,32.8972642 118.442559,32.4468009 117.271145,32.4485482 C114.405513,32.4485482 112.937751,34.5453518 112.951729,36.8098996 C112.965708,39.0744475 114.422987,41.1153363 117.271145,41.1153363 C118.370219,41.1219762 119.431901,40.7183415 120.248955,39.9830624 L120.248955,37.2362497 L116.837805,37.2362497 L116.837805,36.5722619 L120.961519,36.5722619 L120.961519,40.2416682 C120.001183,41.2523275 118.665519,41.8216097 117.271145,41.8142709 C113.944566,41.8142709 112.225187,39.4938082 112.225187,36.8238783 C112.225187,33.7625451 114.294033,31.7635924 117.271145,31.7635924 C118.611701,31.7653397 119.897391,32.2954815 120.84969,33.2383442 L120.84969,33.2313549 Z M97.9490998,31.9033793 L98.2706097,31.9033793 L104.854573,39.9970411 L104.854573,31.9103686 L105.595443,31.9103686 L105.595443,41.695452 L105.301891,41.695452 L98.6969597,33.6157689 L98.6969597,41.695452 L97.9424599,41.695452 L97.9490998,31.9033793 Z M90.1035597,41.6884626 L90.8444303,41.6884626 L90.8444303,31.9033793 L90.1035597,31.9033793 L90.1035597,41.6884626 Z M75.3245892,31.9033793 L75.6321204,31.9033793 L82.2164331,39.9970411 L82.2164331,31.9103686 L82.9709329,31.9103686 L82.9709329,41.695452 L82.6773804,41.695452 L76.0794385,33.6157689 L76.0794385,41.695452 L75.3245892,41.695452 L75.3245892,31.9033793 Z M63.6492374,32.4485482 C60.8534993,32.4485482 59.4556302,34.489437 59.4556302,36.795921 C59.4556302,39.0045541 60.8534993,41.1572724 63.6492374,41.1572724 C66.4449755,41.1572724 67.8428445,39.0045541 67.8428445,36.795921 C67.8564738,34.5383624 66.4586047,32.4555375 63.6492374,32.4555375 L63.6492374,32.4485482 Z M63.6492374,31.7496137 C66.9478589,31.7496137 68.5973444,34.1679271 68.5833657,36.8098996 C68.5833657,39.3819787 66.9338802,41.8562069 63.6492374,41.8562069 C60.3638956,41.8562069 58.7147596,39.368 58.7147596,36.7819423 C58.7147596,34.1958845 60.349917,31.756603 63.6492374,31.756603 L63.6492374,31.7496137 Z M52.3090247,33.4270565 L51.6936128,33.7765238 C50.9946783,32.6302712 49.834447,32.4625269 48.7301305,32.4485482 C47.6258139,32.4345695 45.7666481,32.8679089 45.7666481,34.4335223 C45.7666481,35.6776257 47.1089518,35.9711782 48.7580878,36.2787094 C50.6452111,36.6281767 52.6022277,36.9776439 52.6022277,39.0744475 C52.6022277,41.2830806 50.3656373,41.8142709 48.7301305,41.8142709 C47.2064532,41.8142709 45.4730956,41.1852298 44.7182463,39.6895099 L45.3895729,39.3400426 C45.9903071,40.5282313 47.5279631,41.1153363 48.7301305,41.1153363 C49.9326473,41.1153363 51.8473784,40.7658691 51.8473784,39.0464901 C51.8473784,37.5787276 50.2401785,37.2572177 48.6322796,36.9496866 C46.8430072,36.6002193 45.0121482,36.250752 45.0121482,34.4335223 C44.9702122,32.3646761 47.1089518,31.7216563 48.7301305,31.7216563 C50.1210102,31.7705817 51.3441456,31.9942408 52.3090247,33.4270565 Z M31.8651898,38.5921827 L37.1071988,38.5921827 L34.4788555,32.6512392 L31.8651898,38.5921827 Z M39.3015037,41.695452 L38.4907397,41.695452 L37.4143805,39.2911172 L31.5747825,39.2911172 L30.5263807,41.695452 L29.701638,41.695452 L34.0912963,31.9103686 L34.9156896,31.9103686 L39.3015037,41.695452 Z M17.9245912,32.6093031 L17.9245912,36.411507 L23.6558543,36.411507 L23.6558543,37.1104415 L17.9284354,37.1104415 L17.9284354,40.9545814 L24.1066671,40.9545814 L24.1066671,41.6814733 L17.1875648,41.6814733 L17.1875648,31.8963899 L23.9389228,31.8963899 L23.9389228,32.5953245 L17.9245912,32.6093031 Z M3.94590071,32.6093031 L3.94590071,37.2711964 L7.41261596,37.2711964 C9.11836567,37.2711964 9.8588868,36.3066668 9.88684418,34.9367551 C9.93017812,33.6926517 8.95656232,32.6487929 7.71245887,32.6058085 C7.63697394,32.6030127 7.56148901,32.6040611 7.48600408,32.6093031 L3.94590071,32.6093031 Z M7.53842417,37.9491629 L10.9806767,41.695452 L9.9986737,41.695452 L6.61618006,37.991099 L3.94590071,37.991099 L3.94590071,41.695452 L3.19140089,41.695452 L3.19140089,31.9103686 L7.48600408,31.9103686 C9.61076504,31.9103686 10.6871242,33.4340459 10.7011029,34.9577232 C10.7255656,36.5512939 9.67716382,37.9491629 7.53842417,37.9491629 Z" id="Fill-1" fill="#7F9690"></path>
                <path d="M292.64806,35.5207639 L292.64806,32.1335858 L291.162456,34.3669445 L291.063415,34.3669445 L289.577811,32.1335858 L289.577811,35.5207639 L289.285642,35.5207639 L289.285642,31.7077126 L289.631788,31.7077126 L291.117392,33.9311672 L292.563381,31.7077126 L292.95459,31.7077126 L292.95459,35.5207639 L292.64806,35.5207639 Z M286.175777,35.5207639 L286.175777,31.9751214 L284.798621,31.9751214 L284.798621,31.7176166 L287.849558,31.7176166 L287.849558,31.9751214 L286.467946,31.9751214 L286.467946,35.5207639 L286.175777,35.5207639 Z" id="Fill-3" fill="#7F9690"></path>
                <g id="Imandra-gradient-logo-blue">
                    <g id="Group-2" transform="translate(0.093271, 0.000000)">
                        <path d="M8.34827902,0 C3.79662571,0.0421376126 0.1233429,3.75774659 0.125122419,8.33110595 C0.134731821,12.9355329 3.86068839,16.6611406 8.44935569,16.6547128 C13.0333962,16.6415002 16.7379986,12.9016085 16.7244742,8.30253808 C16.710594,3.73774908 13.0383789,0.0417805142 8.50167355,0 L8.34827902,0 Z" id="Fill-6" fill="#0080FF"></path>
                        <path d="M31.3161729,3.93165352 L31.3161729,12.7377004 C31.3026486,12.9305335 31.3026486,13.1244379 31.3161729,13.3176282 C31.4759737,15.4812875 33.3533661,17.1050139 35.509787,16.9450338 C37.6658521,16.7850538 39.2848583,14.9013596 39.1250575,12.7377004 L39.1250575,3.93165352 C39.1250575,1.76192356 37.3725874,0.00357098412 35.2101161,0.00357098412 C33.0561864,0.0153552317 31.3161729,1.77049393 31.3161729,3.93165352" id="Fill-12" fill="#0092F4"></path>
                        <path d="M61.8690879,0 C57.3185023,0.0439231047 53.6477109,3.75953208 53.6494904,8.33110595 C53.6594557,12.9383897 57.3893272,16.6650687 61.9811976,16.6547128 L61.9851126,16.6547128 C66.5687972,16.6354295 70.2684169,12.8908956 70.2488422,8.29182512 C70.2292675,3.7320355 66.5602555,0.0439231047 62.0303123,0 L61.8690879,0 Z" id="Fill-9" fill="#00A1EA"></path>
                        <polygon id="Fill-15" fill="#00AEE0" points="94.5606287 14.9056448 96.2333764 14.9056448 96.2333764 1.01773047 94.5606287 1.01773047"></polygon>
                        <polygon id="Fill-17" fill="#00BBD8" points="127.634766 1.01773047 122.744648 8.08863613 117.85453 1.01773047 115.797407 1.01773047 115.797407 14.9056448 117.470154 14.9056448 117.470154 3.46064071 122.488753 10.5344032 122.872774 10.5344032 128.022701 3.58883904 128.022701 14.9056448 129.695805 14.9056448 129.695805 1.01773047"></polygon>
                        <path d="M153.633536,1.01773047 L147.455047,14.9056448 L149.387249,14.9056448 L150.672417,11.8199574 L158.640747,11.8199574 L160.064718,14.9056448 L161.86915,14.9056448 L155.694219,1.01773047 L153.633536,1.01773047 Z M154.662098,2.80286544 L157.883027,10.2630084 L151.316959,10.2630084 L154.662098,2.80286544 Z" id="Fill-20" fill="#00C6CF"></path>
                        <polygon id="Fill-23" fill="#00D2C7" points="189.412542 1.01773047 189.412542 11.5628466 180.917475 1.01773047 179.760432 1.01773047 179.760432 14.9056448 181.43318 14.9056448 181.43318 4.36017161 189.928247 14.9056448 191.084934 14.9056448 191.084934 1.01773047"></polygon>
                        <path d="M210.649676,1.01773047 L210.649676,14.9056448 L215.667564,14.9056448 C220.557681,14.9056448 222.618364,11.4342911 222.618364,7.83509626 C222.618364,4.36017161 220.429556,1.01773047 215.667564,1.01773047 L210.649676,1.01773047 Z M212.321712,2.68895104 L215.667564,2.68895104 C219.272869,2.68895104 220.945616,5.26005961 220.945616,7.83509626 C220.945616,10.4058477 219.400994,13.2340671 215.667564,13.2340671 L212.321712,13.2340671 L212.321712,2.68895104 Z" id="Fill-26" fill="#00DDBF"></path>
                        <path d="M241.406524,1.01773047 L241.406524,2.56039561 L247.584658,2.56039561 C247.623451,2.55968142 247.661889,2.55932432 247.699971,2.56003852 C249.299758,2.58824929 250.573893,3.9120131 250.546133,5.51717046 C250.546133,7.06376369 249.517571,8.34896087 247.456888,8.34896087 L242.951147,8.34896087 L242.951147,5.10293631 L241.406524,3.81024006 L241.406524,14.8910038 L243.078916,14.8910038 L243.078916,9.89162601 L246.428326,9.89162601 L250.819823,14.7767323 L252.976956,14.7767323 L248.350563,9.63451515 C251.183201,9.50595973 252.339888,7.44942997 252.339888,5.38861504 C252.339888,3.20317276 250.802384,1.01773047 247.713139,1.01773047 L241.406524,1.01773047 Z" id="Fill-29" fill="#00E9B6"></path>
                        <path d="M276.412863,1.01773047 L270.245407,14.9056448 L272.174405,14.9056448 L273.455659,11.8199574 L281.427903,11.8199574 L282.851162,14.9056448 L284.652391,14.9056448 L278.345776,1.01773047 L276.412863,1.01773047 Z M277.44534,2.80286544 L280.66271,10.2630084 L274.099844,10.2630084 L277.44534,2.80286544 Z" id="Fill-32" fill="#00EEB2"></path>
                    </g>
                </g>
            </g>
        </g>
    </g>
</svg>