<?xml version="1.0" encoding="UTF-8"?>
<svg width="146px" height="50px" viewBox="0 0 146 50" version="1.1" xmlns="http://www.w3.org/2000/svg" xmlns:xlink="http://www.w3.org/1999/xlink">
    <!-- Generator: Sketch 52.6 (67491) - http://www.bohemiancoding.com/sketch -->
    <title>Group</title>
    <desc>Created with Sketch.</desc>
    <g id="Page-1" stroke="none" stroke-width="1" fill="none" fill-rule="evenodd">
        <g id="Imandra-state-exploring" transform="translate(-805.000000, -25.000000)" fill="#525F8C">
            <g id="Group" transform="translate(805.000000, 25.000000)">
                <path d="M71.1383178,28.7785899 L77.4367601,28.7785899 C80.0542056,28.7785899 81.6149533,27.3241822 81.6149533,24.8858187 L81.6149533,24.8808272 C81.6292835,23.8088956 81.2174455,22.7650414 80.4853583,22.0200553 C79.7482866,21.2731973 78.7370717,20.8794902 77.5551402,20.8794902 L71.1383178,20.8794902 L71.1383178,28.7785899 Z M86,39 L81.9825545,39 L75.6392523,31.65808 L71.1383178,31.65808 L71.1383178,39 L68,39 L68,18 L77.5551402,18 C82.4984424,18 84.7514019,21.5383724 84.7514019,24.82904 C84.7800623,27.6492557 83.3252336,30.7801943 79.2180685,31.3854176 L86,39 Z" id="Fill-1"></path>
                <polygon id="Fill-3" points="67.845815 8 69.6930316 13.6479238 70.051662 14.9185396 70.4108931 13.6479238 72.1589908 8 73 8 70.3826592 16 69.711654 16 67 8"></polygon>
                <path d="M79.5190048,11.0675871 C79.2024879,11.361541 79.0034554,11.8131611 78.9239806,12.4217793 L82.14651,12.4217793 C82.1506565,12.3736778 82.1520387,12.3001893 82.1520387,12.1999777 C82.1520387,11.7176261 82.0380097,11.3334818 81.8099516,11.0508852 C81.5812025,10.7676205 81.2190739,10.6253201 80.7228749,10.6253201 C80.2377332,10.6253201 79.8362129,10.7729651 79.5190048,11.0675871 Z M78.8914997,13.0103552 L78.8914997,13.2207995 C78.9163787,13.9523438 79.1105736,14.4888097 79.4727021,14.8281929 C79.8355218,15.1682441 80.3227367,15.3379356 80.935038,15.3379356 C81.2135453,15.3379356 81.5231513,15.297851 81.8645473,15.2170137 C82.2045612,15.1368444 82.4561161,15.0433137 82.6192122,14.9384256 L82.7933656,15.4488364 C82.5943331,15.609843 82.2937111,15.7414542 81.8914997,15.8450061 C81.4892882,15.9485581 81.0926054,16 80.7007602,16 C80.1250864,16 79.6351071,15.8824184 79.2308224,15.6465872 C78.8272287,15.4114241 78.5210781,15.0707048 78.3123704,14.6250974 C78.1043538,14.1801581 78,13.6463645 78,13.025721 C78,12.4318005 78.1105736,11.90736 78.3317208,11.4517314 C78.552868,10.9961029 78.8742225,10.6400178 79.2964755,10.3848124 C79.7187284,10.1282708 80.2232205,10 80.8099516,10 C81.2370422,10 81.6143746,10.0881862 81.9398756,10.2652266 C82.2660677,10.4415989 82.5217692,10.6914597 82.7062889,11.0134729 C82.8908086,11.3361541 82.9889426,11.7109453 83,12.1371785 C83,12.3629885 82.9972357,12.5386928 82.991707,12.6636232 C82.9861783,12.7885536 82.9730477,12.9041309 82.950933,13.0103552 L78.8914997,13.0103552 Z" id="Fill-5"></path>
                <path d="M93,10.0046807 L93,10.8960214 C92.8554368,10.8144433 92.627907,10.7729856 92.318039,10.7729856 C92.0213702,10.7729856 91.7416719,10.8425276 91.477687,10.9816115 C91.2143306,11.1200267 90.9962288,11.2798395 90.8252671,11.4603811 L90.8252671,16 L90,16 L90,10.0053494 L90.7014456,10.0053494 L90.7510999,10.890672 C90.8365808,10.7709796 90.9710874,10.6425945 91.1539912,10.5035105 C91.336895,10.3644266 91.5443118,10.2460715 91.7768699,10.1477767 C92.0087995,10.0488131 92.2388435,10 92.4663734,10 C92.7196732,10 92.8975487,10.0013373 93,10.0046807" id="Fill-7"></path>
                <path d="M100.143173,15 L100.865119,15 L100.865119,9.40517981 L100.143173,9.40517981 L100.143173,15 Z M100.076285,7.3101646 C100.126589,7.21468133 100.193477,7.1397925 100.275843,7.08362587 C100.358762,7.02808331 100.444997,7 100.535102,7 C100.685462,7 100.800442,7.05179811 100.880597,7.15289804 C100.960199,7.25462205 101,7.38879788 101,7.55480147 C101,7.67899212 100.975124,7.79007723 100.925926,7.88618457 C100.876727,7.98291598 100.810945,8.05718075 100.728027,8.10960293 C100.645661,8.16202512 100.557767,8.18823621 100.465451,8.18823621 C100.334992,8.18823621 100.224986,8.13768625 100.134881,8.03596224 C100.044776,7.93486231 100,7.79881426 100,7.62844216 C100,7.51111631 100.025428,7.40439972 100.076285,7.3101646 Z" id="Fill-9"></path>
                <path d="M107,10.1771377 L107,9.73924548 L108.083436,9.57775762 L108.083436,9.13986543 C108.083436,8.63604748 108.188828,8.2241627 108.401019,7.90360626 C108.612507,7.58365465 108.881609,7.35261208 109.207623,7.21168821 C109.532935,7.07015952 109.880731,7 110.248902,7 C110.399965,7 110.544001,7.010282 110.682417,7.030846 C110.820833,7.05140999 110.926225,7.07439329 111,7.09979587 L111,7.73244122 C110.896715,7.70038557 110.77727,7.67679746 110.640963,7.66107205 C110.504655,7.64474182 110.331811,7.63748393 110.121728,7.63748393 C109.779554,7.63748393 109.507641,7.75179557 109.306692,7.98223331 C109.106447,8.21206623 109.00527,8.54109019 109.00527,8.96870039 L109.00527,9.57775762 L110.679607,9.57775762 L110.679607,10.1771377 L109.00527,10.1771377 L109.00527,15 L108.083436,15 L108.083436,10.1771377 L107,10.1771377 Z" id="Fill-11"></path>
                <path d="M117.143252,15 L117.865597,15 L117.865597,9.40517981 L117.143252,9.40517981 L117.143252,15 Z M117.075774,7.3101646 C117.126659,7.21468133 117.193031,7.1397925 117.275996,7.08362587 C117.358407,7.02808331 117.44469,7 117.534845,7 C117.685288,7 117.800885,7.05179811 117.880531,7.15289804 C117.960177,7.25462205 118,7.38879788 118,7.55480147 C118,7.67899212 117.975111,7.79007723 117.926438,7.88618457 C117.876659,7.98291598 117.810841,8.05718075 117.728429,8.10960293 C117.645465,8.16202512 117.558075,8.18823621 117.465155,8.18823621 C117.334624,8.18823621 117.224558,8.13768625 117.134403,8.03596224 C117.044801,7.93486231 117,7.79881426 117,7.62844216 C117,7.51111631 117.025442,7.40439972 117.075774,7.3101646 Z" id="Fill-12"></path>
                <path d="M126.519005,11.0675871 C126.202488,11.361541 126.003455,11.8131611 125.923981,12.4217793 L129.14651,12.4217793 C129.150657,12.3736778 129.152039,12.3001893 129.152039,12.1999777 C129.152039,11.7176261 129.03801,11.3334818 128.809952,11.0508852 C128.581202,10.7676205 128.219074,10.6253201 127.722875,10.6253201 C127.237733,10.6253201 126.836213,10.7729651 126.519005,11.0675871 Z M125.8915,13.0103552 L125.8915,13.2207995 C125.916379,13.9523438 126.110574,14.4888097 126.472702,14.8281929 C126.835522,15.1682441 127.322737,15.3379356 127.935038,15.3379356 C128.213545,15.3379356 128.523151,15.297851 128.864547,15.2170137 C129.204561,15.1368444 129.456116,15.0433137 129.619212,14.9384256 L129.793366,15.4488364 C129.594333,15.609843 129.293711,15.7414542 128.8915,15.8450061 C128.489288,15.9485581 128.092605,16 127.70076,16 C127.125086,16 126.635107,15.8824184 126.230822,15.6465872 C125.827229,15.4114241 125.521078,15.0707048 125.31237,14.6250974 C125.104354,14.1801581 125,13.6463645 125,13.025721 C125,12.4318005 125.110574,11.90736 125.331721,11.4517314 C125.552868,10.9961029 125.874223,10.6400178 126.296475,10.3848124 C126.718728,10.1282708 127.22322,10 127.809952,10 C128.237042,10 128.614375,10.0881862 128.939876,10.2652266 C129.266068,10.4415989 129.521769,10.6914597 129.706289,11.0134729 C129.890809,11.3361541 129.988943,11.7109453 130,12.1371785 C130,12.3629885 129.997236,12.5386928 129.991707,12.6636232 C129.986178,12.7885536 129.973048,12.9041309 129.950933,13.0103552 L125.8915,13.0103552 Z" id="Fill-13"></path>
                <path d="M137.324252,13.8573192 C137.621927,14.2079636 138.043189,14.3832857 138.586047,14.3832857 C138.896346,14.3832857 139.183389,14.3295779 139.448505,14.2209275 C139.712957,14.1128945 139.939535,13.9881935 140.127575,13.8468246 L140.127575,10.3200093 C140.023256,10.2379042 139.869103,10.1718497 139.665116,10.1224632 C139.46113,10.0730766 139.207973,10.047766 138.904983,10.047766 C138.521595,10.047766 138.179402,10.1372791 137.877741,10.3150706 C137.576744,10.4922448 137.338206,10.7521414 137.162126,11.0929084 C136.986711,11.4342928 136.896346,11.8380276 136.893688,12.3028783 C136.882392,12.9887337 137.026578,13.5066749 137.324252,13.8573192 Z M141,7 L141,15 L140.62392,15 C140.470432,15 140.35814,14.9783934 140.287043,14.9370322 C140.215947,14.8950536 140.180066,14.8043059 140.180066,14.6660236 L140.180066,14.3320472 C139.967442,14.5166294 139.716944,14.6740489 139.427907,14.8043059 C139.138206,14.9345629 138.779402,15 138.350831,15 C137.926246,15 137.536213,14.9067829 137.180731,14.7203488 C136.825249,14.5351493 136.539535,14.2468555 136.323588,13.8573192 C136.107641,13.467783 136,12.9831777 136,12.402886 C136,11.8324716 136.124252,11.3237904 136.373422,10.8774597 C136.622591,10.4311289 136.973422,10.0829539 137.425914,9.83169998 C137.87907,9.58106335 138.4,9.45574504 138.988704,9.45574504 C139.413953,9.45574504 139.798671,9.5174782 140.143522,9.64032719 L140.127575,9.31190678 L140.127575,7 L141,7 Z" id="Fill-14"></path>
                <path d="M132.070823,35.3400056 L131.846304,35.5676675 C130.919027,36.5111138 129.611495,37.032035 128.163152,37.032035 C125.666837,37.032035 123.14781,35.4769886 123.14781,32.0003216 C123.14781,29.0368584 125.222341,26.967965 128.195597,26.967965 C129.527787,26.967965 130.827532,27.4843844 131.762596,28.3815266 L131.98971,28.5995418 L134,26.5280759 L133.778076,26.3132763 C132.199305,24.7775232 130.299977,24 128.133951,24 C123.269154,24 120,27.2149202 120,32.0003216 C120,37.5253025 124.085469,40 128.133951,40 C130.393418,40 132.344658,39.200611 133.933812,37.6288436 L133.738494,37.4352667 L133.963013,37.2127497 L132.070823,35.3400056 Z" id="Fill-15"></path>
                <path d="M145.083962,36.490113 L144.775681,36.6486903 C144.144017,36.9684129 143.455102,37.1539548 142.885724,37.1539548 C141.494052,37.1539548 140.900766,36.395095 140.900766,34.6180021 L140.900766,27.1083719 L145.423702,27.1083719 L145.423702,24.3843092 L140.929078,24.3843092 L140.929078,20 L137.908545,20.3396251 L137.908545,24.3843092 L135,24.3843092 L135,27.1083719 L137.908545,27.1083719 L137.908545,34.6180021 C137.908545,36.4734206 138.370339,37.8762198 139.278826,38.7891628 C140.080359,39.5923215 141.216598,40 142.658602,40 C142.708934,40 142.756749,39.9974319 142.807081,39.9974319 C143.792324,39.9659733 144.698925,39.7342065 145.743937,39.2507704 L146,39.1307139 L145.083962,36.490113 Z" id="Fill-16"></path>
                <path d="M110.979645,36.9920953 L114.082242,27.7393302 L107.822151,27.7393302 L110.979645,36.9920953 Z M107.002399,25.3162781 L114.901994,25.3162781 L117.020766,19 L120,19 L112.524159,40 L109.462888,40 L102,19 L104.829347,19 L107.002399,25.3162781 Z" id="Fill-17"></path>
                <polygon id="Fill-18" points="87 37.3768498 97.2108351 37.3768498 97.2108351 30.3348142 88.1549482 30.3348142 88.1549482 27.8821655 97.2108351 27.8821655 97.2108351 21.6089954 87.2250147 21.6089954 87.2250147 19 97.8178662 19 98.3486212 19 100 22.7574681 100 40 89.520927 40"></polygon>
                <path d="M35.5,27.5 C34.7987407,25.7480894 33.0543808,24.5 31.0003031,24.5 C28.9456192,24.5 27.2018654,25.7480894 26.5,27.5 L35.5,27.5 Z" id="Fill-19" transform="translate(31.000000, 26.000000) rotate(-270.000000) translate(-31.000000, -26.000000) "></path>
                <path d="M32.9345279,25 L32.9345279,25.2226609 L22.0454859,25.2226609 C22.0330806,25.3979471 22,25.5653375 22,25.7445717 C22,26.1748914 22.0385941,26.5941571 22.1102688,27 L32.8897312,27 C32.9614059,26.5941571 33,26.1748914 33,25.7445717 C33,25.4895381 32.9600276,25.2471378 32.9345279,25 Z" id="Fill-20" transform="translate(27.500000, 26.000000) rotate(-90.000000) translate(-27.500000, -26.000000) "></path>
                <path d="M19.5,24.5 C20.3743816,26.2791617 22.0502259,27.5 24.0003227,27.5 C25.9497741,27.5 27.6256184,26.2791617 28.5,24.5 L19.5,24.5 Z" id="Fill-21" transform="translate(24.000000, 26.000000) rotate(-270.000000) translate(-24.000000, -26.000000) "></path>
                <path d="M27.5006224,15.6910656 C12.0648976,15.6910656 1.6966165,20.5052929 1.6966165,25.0003105 C1.6966165,29.4959492 12.0648976,34.3095554 27.5006224,34.3095554 C42.9351024,34.3095554 53.305873,29.4959492 53.305873,25.0003105 C53.305873,20.5052929 42.9351024,15.6910656 27.5006224,15.6910656 M27.5006224,36 C12.0804572,36 0,31.169626 0,25.0003105 C0,18.8316161 12.0804572,14 27.5006224,14 C42.9207876,14 55,18.8316161 55,25.0003105 C55,31.169626 42.9207876,36 27.5006224,36" id="Fill-22"></path>
                <path d="M16.7444333,1.72860715 C16.0630335,1.72860715 15.4596517,1.87605505 14.94813,2.17349307 C11.004442,4.47609545 12.0237104,16.1073199 19.8248891,29.758962 C23.3728241,35.9638494 27.6109674,41.2579918 31.7585092,44.6651823 C35.6336168,47.8448455 39.0185947,48.9894734 41.0344812,47.8156102 C43.0535135,46.6366625 43.7594513,43.1042683 42.9698328,38.1240883 C42.1254759,32.794355 39.7062863,26.4394775 36.1589804,20.2320479 C29.3688909,8.35168732 21.3179286,1.72860715 16.7444333,1.72860715 M39.2299985,50 C36.8259092,50 33.8876477,48.6443691 30.6775813,46.0081022 C26.3708575,42.4731659 21.9898907,37.0106024 18.3400289,30.6245829 C10.545142,16.9875585 8.67962907,3.83101087 14.0918187,0.675498637 C19.4983457,-2.48509801 29.8502121,5.73003818 37.6444698,19.3670626 C41.2930733,25.7505399 43.7858768,32.3157849 44.6635802,37.8514368 C45.5840676,43.664189 44.6012915,47.7361662 41.8914217,49.3136046 C41.1055783,49.7731082 40.2121455,50 39.2299985,50" id="Fill-23"></path>
                <path d="M39.2563835,1.73185324 C34.6841423,1.73185324 26.6338016,8.35448803 19.8430766,20.2340497 C16.2957674,26.4410619 13.8765755,32.79297 13.0303303,38.1248869 C12.2400819,43.104732 12.9460203,46.6368887 14.9656838,47.8157571 C16.9891223,48.9869993 20.3678116,47.8449904 24.2429228,44.662999 C28.3904684,41.2585796 32.6292449,35.9647933 36.1765541,29.7603231 C43.9783692,16.1095991 44.9951219,4.47661475 41.0526885,2.17670924 C40.5411663,1.87929123 39.9371548,1.73185324 39.2563835,1.73185324 M14.1093716,49.3136507 C11.3994992,47.7363185 10.4148347,43.6646151 11.3372106,37.8522537 C12.2149148,32.3169741 14.7083497,25.7521706 18.3575858,19.3691225 C26.1505925,5.73047315 36.4961768,-2.4917367 41.9090007,0.678815544 C47.319937,3.83411558 45.4544223,16.9897785 37.6620448,30.6258858 C34.0121796,37.0114759 29.6312087,42.473672 25.3244809,46.0083707 C22.1144115,48.6419182 19.1748889,50 16.7707973,50 C15.7886494,50 14.8952158,49.7731234 14.1093716,49.3136507 Z" id="Fill-24"></path>
                <polygon id="Fill-25" points="10.8935929 23 10.9117599 23.6714662 7.9135442 25.0944688 10.9824818 26.338367 11 27 7.0136253 25.3838455 7 24.8718174"></polygon>
                <polygon id="Fill-26" points="47.0901961 25.054641 44.0562092 23.6697023 44.0673203 23 48 24.8220665 47.9908497 25.332049 44 27 44.0117647 26.3302977"></polygon>
                <polygon id="Fill-27" points="19.3089944 43 18.7945569 42.8018462 19.2718221 41.7409231 16 40.4763077 16.2144042 40 20 41.4633846"></polygon>
                <polygon id="Fill-28" points="36.4520548 38.464197 39.8233252 38 40 38.2324373 38.7639332 41.5068895 38.3127228 41.328665 38.7127041 40.304721 34.1434603 44 33.8695815 43.639485 39.0476637 39.4515473 39.4082379 38.5265417 38.4545881 38.6708832 33.2765059 42.8588209 33 42.4942399 37.5692438 38.7989609 36.5045975 38.9487237"></polygon>
                <path d="M19.1301216,9.9961165 L18.6904548,7.13268608 L16.9074741,8.02783172 L19.1301216,9.9961165 Z M16.3280054,7.51067961 L18.5769923,6.38122977 L18.276452,4.42653722 L19.1247186,4 L20,10.5624595 L19.1287708,11 L14,6.57411003 L14.8057181,6.16957929 L16.3280054,7.51067961 Z" id="Fill-29"></path>
                <polygon id="Fill-30" points="35.3316395 9.66000357 37.9586228 10.9724255 38.8490096 9.17526325 36.5194442 8.01088702 36.8293062 7.385597 39.1594939 8.54934856 39.9528155 6.94833125 37.3830758 5.66526861 37.7134709 5 41 6.6409959 38.3443949 12 35 10.3296448"></polygon>
            </g>
        </g>
    </g>
</svg>